<svg width="975" height="236" viewBox="0 0 975 236" fill="none" xmlns="http://www.w3.org/2000/svg">
<g clip-path="url(#clip0_200_7412)">
<path d="M84.5093 85.367C108.042 80.3206 132.569 71.5888 132.569 44.0324C132.569 14.453 102.739 0.00537109 66.2865 0.00537109H3.97927C1.65789 0.00537109 0.00390625 1.68259 0.00390625 4.03658V231.211C0.00390625 233.234 1.65789 235.25 3.97927 235.25H29.1662C31.1539 235.25 33.1416 233.234 33.1416 231.211V216.094C47.0626 227.857 65.6191 235.25 84.5093 235.25C125.939 235.25 149.464 201.639 149.464 159.974C149.464 118.632 125.939 85.367 84.5093 85.367ZM99.4242 44.0324C99.4242 67.5502 86.497 82.0052 69.268 86.0364L62.3111 87.0442C51.038 89.3982 41.0996 93.091 33.1416 98.8068V2.02098H66.2865C82.8553 2.02098 99.4242 20.8382 99.4242 44.0324ZM84.5093 233.234C65.2927 233.234 47.0626 225.841 33.1416 213.74V108.554L17.5666 117.962C29.8336 97.799 52.3655 87.3826 84.5093 87.3826C99.4242 87.3826 115.993 119.64 115.993 159.974C115.993 200.301 99.4242 233.234 84.5093 233.234ZM338.04 0.00537109H337.706C337.039 0.00537109 337.039 0.343757 336.713 0.674787L260.158 107.546L177.64 0.674787C177.64 0.00537109 177.306 0.00537109 176.973 0.00537109C176.313 0.00537109 175.979 0.343757 175.979 1.01317V234.242C175.979 234.573 176.313 235.25 176.973 235.25C177.306 235.25 177.967 234.573 177.967 234.242V54.1104L241.268 134.433C241.268 134.764 241.601 135.102 241.928 135.102C242.261 135.441 242.922 135.102 243.255 134.433L308.544 43.3556V207.017C308.544 222.48 320.804 235.25 336.379 235.25H337.706C339.694 235.25 341.682 233.234 341.682 231.211V4.03658C341.682 1.68259 340.028 0.00537109 338.04 0.00537109ZM515.335 233.234H407.964V90.406L393.383 99.4762C401 81.6668 427.848 68.8964 459.666 68.8964C459.666 68.8964 460.66 68.8964 460.66 67.8886C460.66 66.8808 459.666 66.8808 459.666 66.8808C439.114 67.2192 420.558 72.5966 407.964 80.9974V2.02098H515.009C515.335 2.02098 516.003 1.35156 516.003 1.01317C516.003 0.343757 515.335 0.00537109 515.009 0.00537109H378.802C376.481 0.00537109 374.819 1.68259 374.819 3.70555V230.88C374.819 233.234 376.481 235.25 378.802 235.25H515.335C515.669 235.25 516.329 234.573 516.329 234.242C516.329 233.565 515.669 233.234 515.335 233.234ZM647.567 197.27C642.931 214.41 634.313 225.841 622.714 228.526C595.873 234.573 558.752 194.923 544.505 132.748C530.584 70.581 544.505 13.1142 571.68 6.72896C585.267 3.70555 600.508 13.1142 614.095 31.593C615.757 33.6086 615.757 33.6086 617.411 33.6086C619.065 33.6086 651.542 33.6086 657.839 33.6086C658.833 33.6086 658.506 32.9392 658.173 32.6008C644.585 12.4374 624.041 0.00537109 597.527 0.00537109C542.184 0.00537109 514.675 52.4332 514.675 117.624C514.675 182.484 542.184 235.25 597.527 235.25C626.355 235.25 647.901 220.464 661.488 197.27C661.822 196.939 662.148 196.6 661.488 196.6C660.828 196.6 649.228 196.6 648.561 196.6C647.901 196.6 647.567 196.939 647.567 197.27ZM807.64 0.00537109H659.834C659.167 0.00537109 658.833 0.343757 658.833 1.01317C658.833 1.35156 659.167 2.02098 659.834 2.02098H717.165V231.211C717.165 233.234 718.819 235.25 721.14 235.25H746.327C748.315 235.25 750.302 233.234 750.302 231.211V2.02098H807.64C807.967 2.02098 808.634 1.35156 808.634 1.01317C808.634 0.343757 807.967 0.00537109 807.64 0.00537109ZM974.003 233.234H866.625V90.406L852.044 99.4762C859.668 81.6668 886.509 68.8964 918.327 68.8964C918.327 68.8964 919.32 68.8964 919.32 67.8886C919.32 66.8808 918.327 66.8808 918.327 66.8808C897.775 67.2192 879.219 72.5966 866.625 80.9974V2.02098H973.67C974.003 2.02098 974.664 1.35156 974.664 1.01317C974.664 0.343757 974.003 0.00537109 973.67 0.00537109H837.463C835.141 0.00537109 833.487 1.68259 833.487 3.70555V230.88C833.487 233.234 835.141 235.25 837.463 235.25H974.003C974.337 235.25 974.997 234.573 974.997 234.242C974.997 233.565 974.337 233.234 974.003 233.234Z" fill="#E8D6AC"/>
</g>
<defs>
<clipPath id="clip0_200_7412">
<rect width="975" height="235.245" fill="white" transform="translate(0 0.00537109)"/>
</clipPath>
</defs>
</svg>
