<svg width="21" height="21" viewBox="0 0 21 21" fill="none" xmlns="http://www.w3.org/2000/svg">
<path d="M2.497 20.8C1.409 19.0507 0.673 17.2373 0.289 15.36C-0.0736666 13.4827 -0.095 11.6373 0.225 9.824C0.545 7.98933 1.20633 6.22933 2.209 4.544C3.233 2.85867 4.59833 1.344 6.305 0L9.057 1.664C9.313 1.81333 9.48367 1.984 9.569 2.176C9.67567 2.368 9.71833 2.57066 9.697 2.784C9.697 2.976 9.65433 3.168 9.569 3.36C9.48367 3.552 9.377 3.712 9.249 3.84C8.84367 4.30933 8.42767 4.97066 8.001 5.824C7.59567 6.656 7.297 7.616 7.105 8.704C6.93433 9.77067 6.945 10.9333 7.137 12.192C7.329 13.4507 7.83033 14.72 8.641 16C9.06767 16.6613 9.185 17.248 8.993 17.76C8.801 18.2507 8.40633 18.592 7.809 18.784L2.497 20.8ZM13.505 20.8C12.417 19.0507 11.681 17.2373 11.297 15.36C10.9343 13.4827 10.913 11.6373 11.233 9.824C11.553 7.98933 12.2143 6.22933 13.217 4.544C14.241 2.85867 15.6063 1.344 17.313 0L20.065 1.664C20.321 1.81333 20.4917 1.984 20.577 2.176C20.6837 2.368 20.7263 2.57066 20.705 2.784C20.705 2.976 20.6623 3.168 20.577 3.36C20.4917 3.552 20.385 3.712 20.257 3.84C19.8517 4.30933 19.4357 4.97066 19.009 5.824C18.6037 6.656 18.305 7.616 18.113 8.704C17.9423 9.77067 17.953 10.9333 18.145 12.192C18.337 13.4507 18.8383 14.72 19.649 16C20.0757 16.6613 20.193 17.248 20.001 17.76C19.809 18.2507 19.4143 18.592 18.817 18.784L13.505 20.8Z" fill="#E8D6AC"/>
</svg>
