<svg width="37" height="37" viewBox="0 0 37 37" fill="none" xmlns="http://www.w3.org/2000/svg">
<path d="M18.5 3.5C26.7845 3.5 33.5 10.2155 33.5 18.5C33.5 26.7845 26.7845 33.5 18.5 33.5C16.0734 33.5032 13.6824 32.9153 11.534 31.787L5.09901 33.4625C4.884 33.5185 4.65808 33.5173 4.44365 33.4591C4.22922 33.4009 4.03372 33.2877 3.87654 33.1307C3.71935 32.9736 3.60593 32.7782 3.54751 32.5639C3.4891 32.3495 3.48772 32.1236 3.54351 31.9085L5.21751 25.475C4.08627 23.3243 3.49673 20.9301 3.50001 18.5C3.50001 10.2155 10.2155 3.5 18.5 3.5ZM20.378 20H13.625L13.472 20.0105C13.2027 20.0475 12.956 20.1808 12.7774 20.3857C12.5988 20.5906 12.5004 20.8532 12.5004 21.125C12.5004 21.3968 12.5988 21.6594 12.7774 21.8643C12.956 22.0692 13.2027 22.2025 13.472 22.2395L13.625 22.25H20.378L20.5295 22.2395C20.7988 22.2025 21.0455 22.0692 21.2241 21.8643C21.4028 21.6594 21.5012 21.3968 21.5012 21.125C21.5012 20.8532 21.4028 20.5906 21.2241 20.3857C21.0455 20.1808 20.7988 20.0475 20.5295 20.0105L20.378 20ZM23.375 14.75H13.625L13.472 14.7605C13.2027 14.7975 12.956 14.9308 12.7774 15.1357C12.5988 15.3406 12.5004 15.6032 12.5004 15.875C12.5004 16.1468 12.5988 16.4094 12.7774 16.6143C12.956 16.8192 13.2027 16.9525 13.472 16.9895L13.625 17H23.375L23.528 16.9895C23.7973 16.9525 24.044 16.8192 24.2226 16.6143C24.4013 16.4094 24.4997 16.1468 24.4997 15.875C24.4997 15.6032 24.4013 15.3406 24.2226 15.1357C24.044 14.9308 23.7973 14.7975 23.528 14.7605L23.375 14.75Z" fill="#E8D6AC"/>
</svg>
