<svg width="21" height="22" viewBox="0 0 21 22" fill="none" xmlns="http://www.w3.org/2000/svg">
<path d="M2.497 21.5336C1.409 19.7843 0.673 17.971 0.289 16.0936C-0.0736666 14.2163 -0.095 12.371 0.225 10.5576C0.545 8.72297 1.20633 6.96297 2.209 5.27764C3.233 3.59231 4.59833 2.07764 6.305 0.733643L9.057 2.39764C9.313 2.54697 9.48367 2.71764 9.569 2.90964C9.67567 3.10164 9.71833 3.30431 9.697 3.51764C9.697 3.70964 9.65433 3.90164 9.569 4.09364C9.48367 4.28564 9.377 4.44564 9.249 4.57364C8.84367 5.04297 8.42767 5.70431 8.001 6.55764C7.59567 7.38964 7.297 8.34964 7.105 9.43764C6.93433 10.5043 6.945 11.667 7.137 12.9256C7.329 14.1843 7.83033 15.4536 8.641 16.7336C9.06767 17.395 9.185 17.9816 8.993 18.4936C8.801 18.9843 8.40633 19.3256 7.809 19.5176L2.497 21.5336ZM13.505 21.5336C12.417 19.7843 11.681 17.971 11.297 16.0936C10.9343 14.2163 10.913 12.371 11.233 10.5576C11.553 8.72297 12.2143 6.96297 13.217 5.27764C14.241 3.59231 15.6063 2.07764 17.313 0.733643L20.065 2.39764C20.321 2.54697 20.4917 2.71764 20.577 2.90964C20.6837 3.10164 20.7263 3.30431 20.705 3.51764C20.705 3.70964 20.6623 3.90164 20.577 4.09364C20.4917 4.28564 20.385 4.44564 20.257 4.57364C19.8517 5.04297 19.4357 5.70431 19.009 6.55764C18.6037 7.38964 18.305 8.34964 18.113 9.43764C17.9423 10.5043 17.953 11.667 18.145 12.9256C18.337 14.1843 18.8383 15.4536 19.649 16.7336C20.0757 17.395 20.193 17.9816 20.001 18.4936C19.809 18.9843 19.4143 19.3256 18.817 19.5176L13.505 21.5336Z" fill="#E8D6AC"/>
</svg>
